CMC_leg_t_102_r_0.8196_states
version=1
nRows=12
nColumns=49
inDegrees=yes

# SIMM Motion File Header:
name CMC_leg_t_102_r_0.8196_states
datacolumns 49
datarows 12
otherdata 1
range 0.00000000 0.08144183
endheader
time	/jointset/bb/crank_angle/value	/jointset/bb/crank_angle/speed	/jointset/spindle/pedal_angle_r/value	/jointset/spindle/pedal_angle_r/speed	/jointset/ground_pelvis/pelvis_tilt/value	/jointset/ground_pelvis/pelvis_tilt/speed	/jointset/ground_pelvis/pelvis_list/value	/jointset/ground_pelvis/pelvis_list/speed	/jointset/ground_pelvis/pelvis_rotation/value	/jointset/ground_pelvis/pelvis_rotation/speed	/jointset/ground_pelvis/pelvis_tx/value	/jointset/ground_pelvis/pelvis_tx/speed	/jointset/ground_pelvis/pelvis_ty/value	/jointset/ground_pelvis/pelvis_ty/speed	/jointset/ground_pelvis/pelvis_tz/value	/jointset/ground_pelvis/pelvis_tz/speed	/jointset/hip_r/hip_angle_r/value	/jointset/hip_r/hip_angle_r/speed	/jointset/hip_r/hip_adduction_r/value	/jointset/hip_r/hip_adduction_r/speed	/jointset/hip_r/hip_rotation_r/value	/jointset/hip_r/hip_rotation_r/speed	/jointset/knee_r/knee_angle_r/value	/jointset/knee_r/knee_angle_r/speed	/jointset/knee_r/tib_tx_r/value	/jointset/knee_r/tib_tx_r/speed	/jointset/knee_r/tib_ty_r/value	/jointset/knee_r/tib_ty_r/speed	/jointset/tib_pat_r/pat_angle_r/value	/jointset/tib_pat_r/pat_angle_r/speed	/jointset/tib_pat_r/pat_tx_r/value	/jointset/tib_pat_r/pat_tx_r/speed	/jointset/tib_pat_r/pat_ty_r/value	/jointset/tib_pat_r/pat_ty_r/speed	/jointset/ankle_r/ankle_angle_r/value	/jointset/ankle_r/ankle_angle_r/speed	/jointset/subtalar_r/subtalar_angle_r/value	/jointset/subtalar_r/subtalar_angle_r/speed	/jointset/mtp_r/mtp_angle_r/value	/jointset/mtp_r/mtp_angle_r/speed	/forceset/bifemlh_r/activation	/forceset/bifemlh_r/fiber_length	/forceset/bifemsh_r/activation	/forceset/bifemsh_r/fiber_length	/forceset/glut_max2_r/activation	/forceset/glut_max2_r/fiber_length	/forceset/vas_int_r/activation	/forceset/vas_int_r/fiber_length
      0.00000000	    -11.44527515	      0.00000000	      1.33767638	      0.00000000	      0.00000000	      0.00000000	     -0.00000000	      0.00000000	     -0.00000000	      0.00000000	     -0.00000000	      0.00000000	      0.00000000	      0.00000000	      0.00000000	      0.00000000	     80.50544127	      0.00000000	      4.04609200	      0.00000000	     -4.15585648	      0.00000000	   -118.70410857	      0.00000000	     -0.00327320	      0.00000000	     -0.49562947	      0.00000000	     17.65088588	      0.00000000	      0.02010046	      0.00000000	     -0.02450208	      0.00000000	     28.81511456	      0.00000000	     -0.00000000	      0.00000000	      0.00000000	      0.00000000	      0.05000000	      0.13633200	      0.05000000	      0.14453866	      0.05000000	      0.15409993	      0.05000000	      0.16192769
      0.00682171	    -11.46412573	     -5.51772923	      1.36167938	      7.02578370	      0.00000000	     -0.00000000	      0.00000000	      0.00000000	     -0.00000000	     -0.00000000	      0.00000000	      0.00000000	      0.00000000	      0.00000000	      0.00000000	      0.00000000	     80.50719410	      0.51263365	      4.04614385	      0.01518207	     -4.15528310	      0.16786942	   -118.69886394	      1.53557134	     -0.00327128	      0.00056322	     -0.49562780	      0.00048741	     17.65088838	      0.00072880	      0.02010311	      0.00077686	     -0.02450165	      0.00012648	     28.81321627	     -0.55574196	      0.00000000	      0.00000000	     -0.07160284	    -20.99209264	      0.04720766	      0.13634046	      0.04720766	      0.14454826	      0.04720766	      0.15410948	      0.04720766	      0.16193274
      0.01364342	    -11.52041420	    -10.97552560	      1.43334888	     13.97400367	      0.00000000	      0.00000000	      0.00000000	      0.00000000	     -0.00000000	     -0.00000000	      0.00000000	      0.00000000	      0.00000000	      0.00000000	      0.00000000	      0.00000000	     80.51241044	      1.01453943	      4.04629887	      0.03025321	     -4.15356945	      0.33436574	   -118.68318613	      3.05947449	     -0.00326553	      0.00112174	     -0.49562283	      0.00097122	     17.65089578	      0.00143752	      0.02011104	      0.00154757	     -0.02450036	      0.00025196	     28.80754401	     -1.10658622	      0.00000000	      0.00000000	     -0.28640129	    -41.98324679	      0.04469197	      0.13636520	      0.04469197	      0.14456714	      0.04469197	      0.15413309	      0.04469197	      0.16193957
      0.02405879	    -11.67786842	    -19.26141148	      1.63379396	     24.51741428	     -0.00000000	     -0.00000000	      0.00000000	      0.00000000	     -0.00000000	      0.00000000	      0.00000000	      0.00000000	      0.00000000	      0.00000000	      0.00000000	     -0.00000000	     80.52686140	      1.75511166	      4.04673396	      0.05335721	     -4.14876365	      0.58899533	   -118.63919468	      5.39376488	     -0.00324941	      0.00197551	     -0.49560886	      0.00171274	     17.65091616	      0.00246218	      0.02013329	      0.00272714	     -0.02449673	      0.00044397	     28.79164627	     -1.94754529	      0.00000000	      0.00000000	     -0.89064190	    -74.05192388	      0.04131704	      0.13643017	      0.04131704	      0.14459928	      0.04131704	      0.15418267	      0.04131704	      0.16194175
      0.03046413	    -11.81770023	    -24.41356848	      1.81176282	     31.06853256	     -0.00000000	     -0.00000000	      0.00000000	      0.00000000	     -0.00000000	      0.00000000	      0.00000000	      0.00000000	      0.00000000	      0.00000000	     -0.00000000	     -0.00000000	     80.53952120	      2.19602378	      4.04712217	      0.06792672	     -4.14448065	      0.74901097	   -118.59995859	      6.86411627	     -0.00323505	      0.00251167	     -0.49559640	      0.00218023	     17.65093383	      0.00305126	      0.02015312	      0.00346923	     -0.02449351	      0.00056475	     28.77748996	     -2.47467255	      0.00000000	      0.00000000	     -1.42820810	    -93.80240611	      0.03948684	      0.13648289	      0.03948684	      0.14461912	      0.03948684	      0.15421649	      0.03948684	      0.16193638
      0.03831444	    -12.03458321	    -30.87418911	      2.08771857	     39.27660110	     -0.00000000	     -0.00000000	      0.00000000	      0.00000000	     -0.00000000	      0.00000000	      0.00000000	      0.00000000	      0.00000000	      0.00000000	     -0.00000000	     -0.00000000	     80.55883315	      2.72109178	      4.04772766	      0.08648381	     -4.13780974	      0.95203590	   -118.53879006	      8.73458188	     -0.00321268	      0.00319139	     -0.49557697	      0.00277551	     17.65096045	      0.00371922	      0.02018403	      0.00441195	     -0.02448847	      0.00071816	     28.75546348	     -3.14154049	      0.00000000	      0.00000000	     -2.25974047	   -118.05407479	      0.03746657	      0.13655653	      0.03746657	      0.14464293	      0.03746657	      0.15425883	      0.03746657	      0.16192226
      0.04823584	    -12.38276415	    -39.39143041	      2.53053270	     50.08365865	     -0.00000000	      0.00000000	      0.00000000	      0.00000000	      0.00000000	     -0.00000000	      0.00000000	      0.00000000	      0.00000000	     -0.00000000	     -0.00000000	      0.00000000	     80.58901186	      3.35672176	      4.04870821	      0.11152812	     -4.12703000	      1.22443990	   -118.43979931	     11.25436714	     -0.00317656	      0.00410225	     -0.49554550	      0.00357862	     17.65100110	      0.00444925	      0.02023401	      0.00567921	     -0.02448034	      0.00092430	     28.71992816	     -4.03228332	      0.00000000	      0.00000000	     -3.58340465	   -148.79430524	      0.03522227	      0.13665806	      0.03522227	      0.14467244	      0.03522227	      0.15431216	      0.03522227	      0.16189441
      0.05489004	    -12.66469314	    -45.38846189	      2.88890523	     57.68208121	     -0.00000000	     -0.00000000	      0.00000000	      0.00000000	      0.00000000	     -0.00000000	      0.00000000	      0.00000000	      0.00000000	      0.00000000	     -0.00000000	      0.00000000	     80.61270249	      3.76024095	      4.04950986	      0.12960873	     -4.11823849	      1.41986905	   -118.35893242	     13.07011453	     -0.00314711	      0.00475480	     -0.49551978	      0.00415828	     17.65103205	      0.00483964	      0.02027480	      0.00659025	     -0.02447370	      0.00107244	     28.69100013	     -4.66815269	      0.00000000	      0.00000000	     -4.64228687	   -169.47430715	      0.03388713	      0.13672867	      0.03388713	      0.14469209	      0.03388713	      0.15434741	      0.03388713	      0.16186783
      0.06154423	    -12.98744986	    -51.67150769	      3.29897373	     65.63230282	     -0.00000000	      0.00000000	      0.00000000	     -0.00000000	      0.00000000	      0.00000000	      0.00000000	      0.00000000	      0.00000000	      0.00000000	     -0.00000000	     -0.00000000	     80.63900332	      4.14041703	      4.05043597	      0.14897883	     -4.10810542	      1.62805436	   -118.26557580	     15.01223980	     -0.00311318	      0.00544901	     -0.49549007	      0.00477920	     17.65106527	      0.00512187	      0.02032185	      0.00756259	     -0.02446605	      0.00123049	     28.65771704	     -5.34240234	      0.00000000	      0.00000000	     -5.83895337	   -190.20718852	      0.03267311	      0.13679983	      0.03267311	      0.14471175	      0.03267311	      0.15438213	      0.03267311	      0.16183656
      0.06819843	    -13.35307279	    -58.27837935	      3.76324263	     73.97977115	      0.00000000	      0.00000000	      0.00000000	      0.00000000	      0.00000000	      0.00000000	      0.00000000	      0.00000000	      0.00000000	      0.00000000	     -0.00000000	     -0.00000000	     80.66773726	      4.49019576	      4.05149583	      0.16984280	     -4.09653926	      1.85091711	   -118.15882019	     17.10068157	     -0.00307448	      0.00619101	     -0.49545607	      0.00544799	     17.65109990	      0.00526123	      0.02037560	      0.00860566	     -0.02445730	      0.00139996	     28.61980457	     -6.06044548	      0.00000000	      0.00000000	     -7.17374853	   -210.98963133	      0.03156857	      0.13687073	      0.03156857	      0.14473158	      0.03156857	      0.15441630	      0.03156857	      0.16179818
      0.07541334	    -13.80063328	    -65.86663958	      4.33117497	     83.55054181	      0.00000000	      0.00000000	      0.00000000	      0.00000000	      0.00000000	      0.00000000	      0.00000000	     -0.00000000	      0.00000000	      0.00000000	     -0.00000000	     -0.00000000	     80.70137499	      4.82585934	      4.05280865	      0.19445157	     -4.08225648	      2.11197074	   -118.02670173	     19.55970243	     -0.00302673	      0.00705857	     -0.49541396	      0.00623694	     17.65113779	      0.00519956	      0.02044204	      0.00983038	     -0.02444649	      0.00159883	     28.57310190	     -6.89646603	      0.00000000	      0.00000000	     -8.77745999	   -233.57315437	      0.03048257	      0.13694671	      0.03048257	      0.14475348	      0.03048257	      0.15445270	      0.03048257	      0.16175042
      0.08144183	    -14.21776499	    -72.57901088	      4.86011464	     92.00104843	      0.00000000	      0.00000000	      0.00000000	     -0.00000000	      0.00000000	      0.00000000	      0.00000000	      0.00000000	      0.00000000	      0.00000000	     -0.00000000	     -0.00000000	     80.73120104	      5.06145365	      4.05404742	      0.21680985	     -4.06882298	      2.34748636	   -117.90214834	     21.79020928	     -0.00298185	      0.00783968	     -0.49537423	      0.00695396	     17.65116843	      0.00492542	      0.02050460	      0.01093803	     -0.02443632	      0.00177857	     28.52929211	     -7.64587703	      0.00000000	      0.00000000	    -10.24250918	   -252.47178270	      0.02965583	      0.13700920	      0.02965583	      0.14477230	      0.02965583	      0.15448258	      0.02965583	      0.16170240
